<svg width="100%" height="910"><g><g><line y1="30" y2="30" x1="0%" x2="25%" stroke="#aaaaaa"></line><line class="tick-mark" y1="25" y2="30" stroke="#aaaaaa" style="opacity: 1;" x1="0%" x2="0%"></line><line class="tick-mark" y1="25" y2="30" stroke="#aaaaaa" style="opacity: 1;" x1="8.333333333333334%" x2="8.333333333333334%"></line><line class="tick-mark" y1="25" y2="30" stroke="#aaaaaa" style="opacity: 1;" x1="16.666666666666668%" x2="16.666666666666668%"></line><line class="tick-mark" y1="25" y2="30" stroke="#aaaaaa" style="opacity: 1;" x1="25%" x2="25%"></line><text class="tick-mark" y="23" dx="0" text-anchor="start" style="opacity: 1; font-size: 14px;" x="0%">0%</text><text class="tick-mark" y="23" dx="0" text-anchor="middle" style="opacity: 1; font-size: 14px;" x="8.333333333333334%">5%</text><text class="tick-mark" y="23" dx="0" text-anchor="middle" style="opacity: 1; font-size: 14px;" x="16.666666666666668%">10%</text><text class="tick-mark" y="23" dx="0" text-anchor="middle" style="opacity: 1; font-size: 14px;" x="25%">15%</text></g><g class="g_bar" transform="translate(0, 70)"><rect height="10" y="8" fill="#52d0a8" x="0%" width="10.500000000000002%"></rect><rect height="10" y="8" fill="#aaaaaa" x="10.500000000000002%" width="11.833333333333334%"></rect></g><g class="g_bar" transform="translate(0, 30)"><rect height="10" y="8" fill="#52d0a8" x="0%" width="12.5%"></rect><rect height="10" y="8" fill="#aaaaaa" x="12.5%" width="4%"></rect></g><g class="g_bar" transform="translate(0, 150)"><rect height="10" y="8" fill="#52d0a8" x="0%" width="7.000000000000001%"></rect><rect height="10" y="8" fill="#aaaaaa" x="7.000000000000001%" width="12.833333333333332%"></rect></g><g class="g_bar" transform="translate(0, 230)"><rect height="10" y="8" fill="#52d0a8" x="0%" width="5.500000000000001%"></rect><rect height="10" y="8" fill="#aaaaaa" x="5.500000000000001%" width="2.8333333333333335%"></rect></g><g class="g_bar" transform="translate(0, 270)"><rect height="10" y="8" fill="#52d0a8" x="0%" width="5.333333333333334%"></rect><rect height="10" y="8" fill="#aaaaaa" x="5.333333333333334%" width="3%"></rect></g><g class="g_bar" transform="translate(0, 390)"><rect height="10" y="8" fill="#52d0a8" x="0%" width="4.5%"></rect><rect height="10" y="8" fill="#aaaaaa" x="4.5%" width="1.6666666666666667%"></rect></g><g class="g_bar" transform="translate(0, 190)"><rect height="10" y="8" fill="#52d0a8" x="0%" width="6.166666666666667%"></rect><rect height="10" y="8" fill="#aaaaaa" x="6.166666666666667%" width="9.5%"></rect></g><g class="g_bar" transform="translate(0, 510)"><rect height="10" y="8" fill="#52d0a8" x="0%" width="2.8333333333333335%"></rect><rect height="10" y="8" fill="#aaaaaa" x="2.8333333333333335%" width="3.166666666666667%"></rect></g><g class="g_bar" transform="translate(0, 110)"><rect height="10" y="8" fill="#52d0a8" x="0%" width="7.000000000000001%"></rect><rect height="10" y="8" fill="#aaaaaa" x="7.000000000000001%" width="2.8333333333333335%"></rect></g><g class="g_bar" transform="translate(0, 310)"><rect height="10" y="8" fill="#52d0a8" x="0%" width="5.166666666666667%"></rect><rect height="10" y="8" fill="#aaaaaa" x="5.166666666666667%" width="3.166666666666667%"></rect></g><g class="g_bar" transform="translate(0, 470)"><rect height="10" y="8" fill="#52d0a8" x="0%" width="3.6666666666666665%"></rect><rect height="10" y="8" fill="#aaaaaa" x="3.6666666666666665%" width="5.833333333333334%"></rect></g><g class="g_bar" transform="translate(0, 430)"><rect height="10" y="8" fill="#52d0a8" x="0%" width="4.166666666666667%"></rect><rect height="10" y="8" fill="#aaaaaa" x="4.166666666666667%" width="0.8333333333333334%"></rect></g><g class="g_bar" transform="translate(0, 350)"><rect height="10" y="8" fill="#52d0a8" x="0%" width="5%"></rect><rect height="10" y="8" fill="#aaaaaa" x="5%" width="1%"></rect></g><g class="g_bar" transform="translate(0, 550)"><rect height="10" y="8" fill="#52d0a8" x="0%" width="1.5%"></rect><rect height="10" y="8" fill="#aaaaaa" x="1.5%" width="0.33333333333333337%"></rect></g><g class="g_bar" transform="translate(0, 670)"><rect height="10" y="8" fill="#52d0a8" x="0%" width="1.3333333333333335%"></rect><rect height="10" y="8" fill="#aaaaaa" x="1.3333333333333335%" width="5.666666666666667%"></rect></g><g class="g_bar" transform="translate(0, 630)"><rect height="10" y="8" fill="#52d0a8" x="0%" width="1.3333333333333335%"></rect><rect height="10" y="8" fill="#aaaaaa" x="1.3333333333333335%" width="1%"></rect></g><g class="g_bar" transform="translate(0, 590)"><rect height="10" y="8" fill="#52d0a8" x="0%" width="1.5%"></rect><rect height="10" y="8" fill="#aaaaaa" x="1.5%" width="1%"></rect></g><g class="g_bar" transform="translate(0, 750)"><rect height="10" y="8" fill="#52d0a8" x="0%" width="0.8333333333333334%"></rect><rect height="10" y="8" fill="#aaaaaa" x="0.8333333333333334%" width="2.666666666666667%"></rect></g><g class="g_bar" transform="translate(0, 710)"><rect height="10" y="8" fill="#52d0a8" x="0%" width="0.8333333333333334%"></rect><rect height="10" y="8" fill="#aaaaaa" x="0.8333333333333334%" width="0.33333333333333337%"></rect></g><g class="g_bar" transform="translate(0, 830)"><rect height="10" y="8" fill="#52d0a8" x="0%" width="0.6666666666666667%"></rect><rect height="10" y="8" fill="#aaaaaa" x="0.6666666666666667%" width="2.3333333333333335%"></rect></g><g class="g_bar" transform="translate(0, 790)"><rect height="10" y="8" fill="#52d0a8" x="0%" width="0.6666666666666667%"></rect><rect height="10" y="8" fill="#aaaaaa" x="0.6666666666666667%" width="2.3333333333333335%"></rect></g><g class="g_bar" transform="translate(0, 870)"><rect height="10" y="8" fill="#52d0a8" x="0%" width="0.16666666666666674%"></rect><rect height="10" y="8" fill="#aaaaaa" x="0.16666666666666674%" width="0.33333333333333337%"></rect></g></g><g><g><line y1="30" y2="30" x1="33%" x2="58%" stroke="#aaaaaa"></line><line class="tick-mark" y1="25" y2="30" stroke="#aaaaaa" style="opacity: 1;" x1="33%" x2="33%"></line><line class="tick-mark" y1="25" y2="30" stroke="#aaaaaa" style="opacity: 1;" x1="41.333333333333336%" x2="41.333333333333336%"></line><line class="tick-mark" y1="25" y2="30" stroke="#aaaaaa" style="opacity: 1;" x1="49.66666666666667%" x2="49.66666666666667%"></line><line class="tick-mark" y1="25" y2="30" stroke="#aaaaaa" style="opacity: 1;" x1="58%" x2="58%"></line><text class="tick-mark" y="23" dx="0" text-anchor="start" style="opacity: 1; font-size: 14px;" x="33%">0%</text><text class="tick-mark" y="23" dx="0" text-anchor="middle" style="opacity: 1; font-size: 14px;" x="41.333333333333336%">5%</text><text class="tick-mark" y="23" dx="0" text-anchor="middle" style="opacity: 1; font-size: 14px;" x="49.66666666666667%">10%</text><text class="tick-mark" y="23" dx="0" text-anchor="middle" style="opacity: 1; font-size: 14px;" x="58%">15%</text></g><g class="g_bar" transform="translate(0, 70)" style="cursor: pointer;"><rect height="10" y="8" fill="#ffa200" x="33%" width="16.683%"></rect><rect height="10" y="8" fill="#aaaaaa" x="49.683%" width="5.650333333333336%"></rect><line x1="0%" x2="100%" y1="40" y2="40" stroke="#dddddd" style="shape-rendering: crispedges;"></line><text x="0%" y="16" text-anchor="start" dy="17" style="font-size: 14px; font-weight: bold;">Production Occupations</text></g><g class="g_bar" transform="translate(0, 30)" style="cursor: pointer;"><rect height="10" y="8" fill="#ffa200" x="33%" width="10.972500000000004%"></rect><rect height="10" y="8" fill="#aaaaaa" x="43.972500000000004%" width="5.527500000000003%"></rect><line x1="0%" x2="100%" y1="40" y2="40" stroke="#dddddd" style="shape-rendering: crispedges;"></line><text x="0%" y="16" text-anchor="start" dy="17" style="font-size: 14px; font-weight: bold;">Management Occupations</text></g><g class="g_bar" transform="translate(0, 150)" style="cursor: pointer;"><rect height="10" y="8" fill="#ffa200" x="33%" width="13.566000000000003%"></rect><rect height="10" y="8" fill="#aaaaaa" x="46.566%" width="6.267333333333333%"></rect><line x1="0%" x2="100%" y1="40" y2="40" stroke="#dddddd" style="shape-rendering: crispedges;"></line><text x="0%" y="16" text-anchor="start" dy="17" style="font-size: 14px; font-weight: bold;">Office and Administrative Support Occupations</text></g><g class="g_bar" transform="translate(0, 230)" style="cursor: pointer;"><rect height="10" y="8" fill="#ffa200" x="33%" width="4.475000000000001%"></rect><rect height="10" y="8" fill="#aaaaaa" x="37.475%" width="3.8583333333333343%"></rect><line x1="0%" x2="100%" y1="40" y2="40" stroke="#dddddd" style="shape-rendering: crispedges;"></line><text x="0%" y="16" text-anchor="start" dy="17" style="font-size: 14px; font-weight: bold;">Healthcare Practitioners and Technical Occupations</text></g><g class="g_bar" transform="translate(0, 270)" style="cursor: pointer;"><rect height="10" y="8" fill="#ffa200" x="33%" width="6.650000000000006%"></rect><rect height="10" y="8" fill="#aaaaaa" x="39.650000000000006%" width="1.6833333333333371%"></rect><line x1="0%" x2="100%" y1="40" y2="40" stroke="#dddddd" style="shape-rendering: crispedges;"></line><text x="0%" y="16" text-anchor="start" dy="17" style="font-size: 14px; font-weight: bold;">Installation, Maintenance, and Repair Occupations</text></g><g class="g_bar" transform="translate(0, 390)" style="cursor: pointer;"><rect height="10" y="8" fill="#ffa200" x="33%" width="4.125500000000002%"></rect><rect height="10" y="8" fill="#aaaaaa" x="37.1255%" width="2.041166666666669%"></rect><line x1="0%" x2="100%" y1="40" y2="40" stroke="#dddddd" style="shape-rendering: crispedges;"></line><text x="0%" y="16" text-anchor="start" dy="17" style="font-size: 14px; font-weight: bold;">Protective Service Occupations</text></g><g class="g_bar" transform="translate(0, 190)" style="cursor: pointer;"><rect height="10" y="8" fill="#ffa200" x="33%" width="11.593333333333334%"></rect><rect height="10" y="8" fill="#aaaaaa" x="44.593333333333334%" width="4.073333333333331%"></rect><line x1="0%" x2="100%" y1="40" y2="40" stroke="#dddddd" style="shape-rendering: crispedges;"></line><text x="0%" y="16" text-anchor="start" dy="17" style="font-size: 14px; font-weight: bold;">Sales and Related Occupations</text></g><g class="g_bar" transform="translate(0, 510)" style="cursor: pointer;"><rect height="10" y="8" fill="#ffa200" x="33%" width="4.5120000000000005%"></rect><rect height="10" y="8" fill="#aaaaaa" x="37.512%" width="1.4879999999999995%"></rect><line x1="0%" x2="100%" y1="40" y2="40" stroke="#dddddd" style="shape-rendering: crispedges;"></line><text x="0%" y="16" text-anchor="start" dy="17" style="font-size: 14px; font-weight: bold;">Construction and Extraction Occupations</text></g><g class="g_bar" transform="translate(0, 110)" style="cursor: pointer;"><rect height="10" y="8" fill="#ffa200" x="33%" width="7.384833333333333%"></rect><rect height="10" y="8" fill="#aaaaaa" x="40.38483333333333%" width="2.448500000000003%"></rect><line x1="0%" x2="100%" y1="40" y2="40" stroke="#dddddd" style="shape-rendering: crispedges;"></line><text x="0%" y="16" text-anchor="start" dy="17" style="font-size: 14px; font-weight: bold;">Business and Financial Operations Occupations</text></g><g class="g_bar" transform="translate(0, 310)" style="cursor: pointer;"><rect height="10" y="8" fill="#ffa200" x="33%" width="4.858333333333334%"></rect><rect height="10" y="8" fill="#aaaaaa" x="37.858333333333334%" width="3.4750000000000014%"></rect><line x1="0%" x2="100%" y1="40" y2="40" stroke="#dddddd" style="shape-rendering: crispedges;"></line><text x="0%" y="16" text-anchor="start" dy="17" style="font-size: 14px; font-weight: bold;">Education, Training, and Library Occupations</text></g><g class="g_bar" transform="translate(0, 470)" style="cursor: pointer;"><rect height="10" y="8" fill="#ffa200" x="33%" width="6.878%"></rect><rect height="10" y="8" fill="#aaaaaa" x="39.878%" width="2.622%"></rect><line x1="0%" x2="100%" y1="40" y2="40" stroke="#dddddd" style="shape-rendering: crispedges;"></line><text x="0%" y="16" text-anchor="start" dy="17" style="font-size: 14px; font-weight: bold;">Transportation and Material Moving Occupations</text></g><g class="g_bar" transform="translate(0, 430)" style="cursor: pointer;"><rect height="10" y="8" fill="#ffa200" x="33%" width="3.7749999999999986%"></rect><rect height="10" y="8" fill="#aaaaaa" x="36.775%" width="1.2250000000000014%"></rect><line x1="0%" x2="100%" y1="40" y2="40" stroke="#dddddd" style="shape-rendering: crispedges;"></line><text x="0%" y="16" text-anchor="start" dy="17" style="font-size: 14px; font-weight: bold;">Architecture and Engineering Occupations</text></g><g class="g_bar" transform="translate(0, 350)" style="cursor: pointer;"><rect height="10" y="8" fill="#ffa200" x="33%" width="4.350000000000001%"></rect><rect height="10" y="8" fill="#aaaaaa" x="37.35%" width="1.6499999999999986%"></rect><line x1="0%" x2="100%" y1="40" y2="40" stroke="#dddddd" style="shape-rendering: crispedges;"></line><text x="0%" y="16" text-anchor="start" dy="17" style="font-size: 14px; font-weight: bold;">Computer and Mathematical Occupations</text></g><g class="g_bar" transform="translate(0, 550)" style="cursor: pointer;"><rect height="10" y="8" fill="#ffa200" x="33%" width="1.2503333333333302%"></rect><rect height="10" y="8" fill="#aaaaaa" x="34.25033333333333%" width="0.5829999999999984%"></rect><line x1="0%" x2="100%" y1="40" y2="40" stroke="#dddddd" style="shape-rendering: crispedges;"></line><text x="0%" y="16" text-anchor="start" dy="17" style="font-size: 14px; font-weight: bold;">Life, Physical, and Social Science Occupations</text></g><g class="g_bar" transform="translate(0, 670)" style="cursor: pointer;"><rect height="10" y="8" fill="#ffa200" x="33%" width="5.817%"></rect><rect height="10" y="8" fill="#aaaaaa" x="38.817%" width="1.1829999999999998%"></rect><line x1="0%" x2="100%" y1="40" y2="40" stroke="#dddddd" style="shape-rendering: crispedges;"></line><text x="0%" y="16" text-anchor="start" dy="17" style="font-size: 14px; font-weight: bold;">Food Preparation and Serving Related Occupations</text></g><g class="g_bar" transform="translate(0, 630)" style="cursor: pointer;"><rect height="10" y="8" fill="#ffa200" x="33%" width="1.7686666666666682%"></rect><rect height="10" y="8" fill="#aaaaaa" x="34.76866666666667%" width="0.5646666666666675%"></rect><line x1="0%" x2="100%" y1="40" y2="40" stroke="#dddddd" style="shape-rendering: crispedges;"></line><text x="0%" y="16" text-anchor="start" dy="17" style="font-size: 14px; font-weight: bold;">Arts, Design, Entertainment, Sports, and Media Occupations</text></g><g class="g_bar" transform="translate(0, 590)" style="cursor: pointer;"><rect height="10" y="8" fill="#ffa200" x="33%" width="1.9500000000000028%"></rect><rect height="10" y="8" fill="#aaaaaa" x="34.95%" width="0.5499999999999972%"></rect><line x1="0%" x2="100%" y1="40" y2="40" stroke="#dddddd" style="shape-rendering: crispedges;"></line><text x="0%" y="16" text-anchor="start" dy="17" style="font-size: 14px; font-weight: bold;">Community and Social Service Occupations</text></g><g class="g_bar" transform="translate(0, 750)" style="cursor: pointer;"><rect height="10" y="8" fill="#ffa200" x="33%" width="2.835000000000001%"></rect><rect height="10" y="8" fill="#aaaaaa" x="35.835%" width="0.6649999999999991%"></rect><line x1="0%" x2="100%" y1="40" y2="40" stroke="#dddddd" style="shape-rendering: crispedges;"></line><text x="0%" y="16" text-anchor="start" dy="17" style="font-size: 14px; font-weight: bold;">Building and Grounds Cleaning and Maintenance Occupations</text></g><g class="g_bar" transform="translate(0, 710)" style="cursor: pointer;"><rect height="10" y="8" fill="#ffa200" x="33%" width="0.6813333333333347%"></rect><rect height="10" y="8" fill="#aaaaaa" x="33.681333333333335%" width="0.4853333333333367%"></rect><line x1="0%" x2="100%" y1="40" y2="40" stroke="#dddddd" style="shape-rendering: crispedges;"></line><text x="0%" y="16" text-anchor="start" dy="17" style="font-size: 14px; font-weight: bold;">Legal Occupations</text></g><g class="g_bar" transform="translate(0, 830)" style="cursor: pointer;"><rect height="10" y="8" fill="#ffa200" x="33%" width="2.411999999999999%"></rect><rect height="10" y="8" fill="#aaaaaa" x="35.412%" width="0.588000000000001%"></rect><line x1="0%" x2="100%" y1="40" y2="40" stroke="#dddddd" style="shape-rendering: crispedges;"></line><text x="0%" y="16" text-anchor="start" dy="17" style="font-size: 14px; font-weight: bold;">Personal Care and Service Occupations</text></g><g class="g_bar" transform="translate(0, 790)" style="cursor: pointer;"><rect height="10" y="8" fill="#ffa200" x="33%" width="2.2109999999999985%"></rect><rect height="10" y="8" fill="#aaaaaa" x="35.211%" width="0.7890000000000015%"></rect><line x1="0%" x2="100%" y1="40" y2="40" stroke="#dddddd" style="shape-rendering: crispedges;"></line><text x="0%" y="16" text-anchor="start" dy="17" style="font-size: 14px; font-weight: bold;">Healthcare Support Occupations</text></g><g class="g_bar" transform="translate(0, 870)" style="cursor: pointer;"><rect height="10" y="8" fill="#ffa200" x="33%" width="0.464500000000001%"></rect><rect height="10" y="8" fill="#aaaaaa" x="33.4645%" width="0.03549999999999898%"></rect><line x1="0%" x2="100%" y1="40" y2="40" stroke="#dddddd" style="shape-rendering: crispedges;"></line><text x="0%" y="16" text-anchor="start" dy="17" style="font-size: 14px; font-weight: bold;">Farming, Fishing, and Forestry Occupations</text></g></g><g><g><line y1="30" y2="30" x1="66%" x2="91%" stroke="#aaaaaa"></line><line class="tick-mark" y1="25" y2="30" stroke="#aaaaaa" style="opacity: 1;" x1="66%" x2="66%"></line><line class="tick-mark" y1="25" y2="30" stroke="#aaaaaa" style="opacity: 1;" x1="70.8076923076923%" x2="70.8076923076923%"></line><line class="tick-mark" y1="25" y2="30" stroke="#aaaaaa" style="opacity: 1;" x1="75.61538461538461%" x2="75.61538461538461%"></line><line class="tick-mark" y1="25" y2="30" stroke="#aaaaaa" style="opacity: 1;" x1="80.42307692307692%" x2="80.42307692307692%"></line><line class="tick-mark" y1="25" y2="30" stroke="#aaaaaa" style="opacity: 1;" x1="85.23076923076923%" x2="85.23076923076923%"></line><line class="tick-mark" y1="25" y2="30" stroke="#aaaaaa" style="opacity: 1;" x1="90.03846153846153%" x2="90.03846153846153%"></line><text class="tick-mark" y="23" dx="0" text-anchor="start" style="opacity: 1; font-size: 14px;" x="66%">0%</text><text class="tick-mark" y="23" dx="0" text-anchor="middle" style="opacity: 1; font-size: 14px;" x="70.8076923076923%">5%</text><text class="tick-mark" y="23" dx="0" text-anchor="middle" style="opacity: 1; font-size: 14px;" x="75.61538461538461%">10%</text><text class="tick-mark" y="23" dx="0" text-anchor="middle" style="opacity: 1; font-size: 14px;" x="80.42307692307692%">15%</text><text class="tick-mark" y="23" dx="0" text-anchor="middle" style="opacity: 1; font-size: 14px;" x="85.23076923076923%">20%</text><text class="tick-mark" y="23" dx="0" text-anchor="middle" style="opacity: 1; font-size: 14px;" x="90.03846153846153%">25%</text></g></g></svg>