<svg id="Layer_1" data-name="Layer 1" xmlns="http://www.w3.org/2000/svg" viewBox="0 0 834 414.33"><defs><style>.cls-1{fill:none;stroke:#8c8c8c;stroke-linecap:square;stroke-linejoin:round;}.cls-2{font-size:23px;}.cls-10,.cls-13,.cls-14,.cls-15,.cls-2,.cls-3{font-family:Georgia-Bold, Georgia;font-weight:700;}.cls-3{font-size:14.31px;}.cls-11,.cls-12,.cls-3{fill:#565656;}.cls-16,.cls-4{fill:#62c3a2;}.cls-4,.cls-5,.cls-6,.cls-7,.cls-9{fill-rule:evenodd;}.cls-5,.cls-8{fill:#faa21b;}.cls-6{fill:#f79646;}.cls-17,.cls-7{fill:#394d9c;}.cls-9{fill:#a6a6a6;}.cls-10{font-size:22.38px;}.cls-11{font-size:12.65px;font-family:Georgia, Georgia;}.cls-13{font-size:14.59px;}.cls-13,.cls-14{fill:#fff;}.cls-14{font-size:15.3px;}.cls-15{font-size:11.72px;fill:#141414;}</style></defs><title>OI_Final_graphic</title><line class="cls-1" x1="81.08" y1="399.98" x2="81.08" y2="13.97"/><line class="cls-1" x1="89.9" y1="400.36" x2="81.08" y2="400.36"/><line class="cls-1" x1="89.9" y1="13.97" x2="81.08" y2="13.97"/><text class="cls-2" transform="translate(21.43 188.72)">All<tspan x="-7.97" y="27.6">jobs</tspan></text><text class="cls-3" transform="translate(17.38 240.74)">101M</text><path class="cls-4" d="M263.67,219.29a83.1,83.1,0,1,1-147.05,28l16.05,4.29a66.47,66.47,0,1,0,117.64-22.42Z"/><path class="cls-5" d="M116.61,247.31a83,83,0,0,1,147.05-28l-13.36,9.89A66.44,66.44,0,0,0,132.67,251.6Z"/><path class="cls-6" d="M270,213.18a123,123,0,1,1,219.86-62l-17.12-1.8A105.72,105.72,0,1,0,283.69,202.7Z"/><path class="cls-7" d="M489.88,151.22a122.9,122.9,0,0,1-219.86,62l13.66-10.47a105.71,105.71,0,0,0,189.08-53.28Z"/><path class="cls-8" d="M270,213.18a123,123,0,1,1,219.86-62l-17.12-1.8A105.72,105.72,0,1,0,283.69,202.7Z"/><path class="cls-9" d="M670.47,93.53c84.1,0,152.28,68.24,152.28,152.42a152.49,152.49,0,0,1-47.56,110.66l-10.47-11.07a137.18,137.18,0,0,0-94.25-236.77Z"/><path class="cls-9" d="M775.19,356.61A152.36,152.36,0,1,1,670.47,93.53v15.24a137.18,137.18,0,1,0,94.25,236.77Z"/><text class="cls-10" transform="translate(136.21 267.86)">Promising<tspan x="36.01" y="26.85">jobs</tspan></text><text class="cls-10" transform="translate(308.57 119.11)">Good jobs</text><text class="cls-10" transform="translate(610.58 225.07)">Other jobs</text><text class="cls-11" transform="translate(303.64 150.49)">Pay a middle-class wage</text><text class="cls-11" transform="translate(303.64 168.98)">Provide job benefits</text><circle class="cls-12" cx="296.15" cy="147" r="2.27"/><circle class="cls-12" cx="296.15" cy="164.51" r="2.27"/><text class="cls-11" transform="translate(123.28 395.19)">Provide pathways to good jobs</text><text class="cls-11" transform="translate(122.7 378.65)">Do not provide the pay or benefits of good jobs</text><circle class="cls-12" cx="115.06" cy="373.9" r="2.27"/><circle class="cls-12" cx="115.06" cy="391.42" r="2.27"/><text class="cls-11" transform="translate(544.6 254.28)">Do not provide the pay or benefits of good jobs</text><text class="cls-11" transform="translate(544.6 270.82)">Do not provide career pathways to good jobs</text><circle class="cls-12" cx="539.21" cy="248.82" r="2.27"/><circle class="cls-12" cx="539.21" cy="266.34" r="2.27"/><text class="cls-13" transform="translate(358.58 254.28)">11.4M</text><text class="cls-13" transform="translate(328.93 29.54)">17.5M</text><text class="cls-13" transform="translate(165.33 199.19)">5.4M</text><text class="cls-14" transform="translate(182.53 346.99)">9.3M</text><text class="cls-13" transform="translate(642.66 105.64)">56.9M</text><text class="cls-15" transform="translate(112.02 73.73)">Workers without a<tspan x="0" y="13.52">bachelor’s degree</tspan></text><polyline class="cls-16" points="97.49 75.43 97.49 65.66 107.26 65.66"/><text class="cls-15" transform="translate(111.79 37.72)">High-skill workers with<tspan x="0" y="13.52">a bachelor’s degree</tspan></text><rect class="cls-8" x="97.49" y="29.66" width="9.77" height="9.77"/><polyline class="cls-17" points="107.26 65.66 107.26 75.43 97.49 75.43"/></svg>